<svg width="12" height="16" viewBox="0 0 12 16" fill="none" xmlns="http://www.w3.org/2000/svg">
<g id="arrows-exchange-alt-v">
<path d="M6.9841 0.992676C6.9841 0.440391 7.43182 -0.00732422 7.9841 -0.00732422C8.34149 -0.00732422 8.6551 0.180161 8.83192 0.462143L11.5195 3.14976C11.9101 3.54029 11.9101 4.17345 11.5195 4.56398C11.129 4.9545 10.4959 4.9545 10.1053 4.56398L8.9841 3.44275V10.9927C8.9841 11.545 8.53639 11.9927 7.9841 11.9927C7.43182 11.9927 6.9841 11.545 6.9841 10.9927V1.04213C6.98398 1.033 6.98398 1.02388 6.9841 1.01476V0.992676Z" fill="#2B2A29"/>
<path d="M5.0159 15.0076C5.0159 15.5599 4.56818 16.0076 4.0159 16.0076C3.65851 16.0076 3.3449 15.8201 3.16808 15.5381L0.480458 12.8505C0.0899338 12.46 0.0899338 11.8268 0.480458 11.4363C0.870982 11.0457 1.50415 11.0457 1.89467 11.4363L3.0159 12.5575V5.00757C3.0159 4.45528 3.46361 4.00757 4.0159 4.00757C4.56818 4.00757 5.0159 4.45528 5.0159 5.00757V14.9581C5.01602 14.9672 5.01602 14.9764 5.0159 14.9855V15.0076Z" fill="#2B2A29"/>
</g>
</svg>
