<svg width="19" height="18" viewBox="0 0 19 18" fill="none" xmlns="http://www.w3.org/2000/svg">
<g id="calendar">
<path d="M5.5 7C4.94772 7 4.5 7.44771 4.5 8C4.5 8.55228 4.94772 9 5.5 9H13.5C14.0523 9 14.5 8.55228 14.5 8C14.5 7.44771 14.0523 7 13.5 7H5.5Z" fill="#2B2A29"/>
<path fill-rule="evenodd" clip-rule="evenodd" d="M3.5 0C1.84315 0 0.5 1.34315 0.5 3V15C0.5 16.6569 1.84315 18 3.5 18H15.5C17.1569 18 18.5 16.6569 18.5 15V3C18.5 1.34315 17.1569 0 15.5 0H3.5ZM2.5 15V5H16.5V15C16.5 15.5523 16.0523 16 15.5 16H3.5C2.94772 16 2.5 15.5523 2.5 15Z" fill="#2B2A29"/>
</g>
</svg>
