<svg version="1.1" id="Layer_1" xmlns="http://www.w3.org/2000/svg" xmlns:xlink="http://www.w3.org/1999/xlink" x="0px" y="0px"
	 width="100%" viewBox="0 0 225 225" enable-background="new 0 0 225 225" xml:space="preserve">
<path fill="none" opacity="1.000000" stroke="none" 
	d="
M129.000000,226.000000 
	C86.000000,226.000000 43.500004,226.000000 1.000006,226.000000 
	C1.000004,151.000000 1.000004,76.000015 1.000002,1.000016 
	C75.999992,1.000010 150.999985,1.000010 225.999969,1.000005 
	C225.999985,75.999985 225.999985,150.999969 226.000000,225.999969 
	C193.833328,226.000000 161.666672,226.000000 129.000000,226.000000 
M11.636101,132.840408 
	C15.732863,153.623383 24.530060,171.998398 40.030708,186.694168 
	C45.423466,191.806900 51.151394,196.777344 57.410801,200.728241 
	C84.857513,218.052429 114.331970,221.873596 145.314011,212.217072 
	C185.459564,199.704453 213.599091,163.431885 216.795288,122.477631 
	C217.398758,114.745056 217.104568,106.798004 216.023346,99.119064 
	C214.945404,91.463486 212.987305,83.782539 210.254456,76.551346 
	C207.531143,69.345299 203.937317,62.304512 199.673157,55.890690 
	C195.437973,49.520428 190.308517,43.591251 184.801193,38.264843 
	C179.645432,33.278442 173.865692,28.682413 167.694962,25.043211 
	C136.675522,6.749409 104.124931,4.085028 71.261604,18.874393 
	C26.468573,39.032436 3.842442,82.763268 11.636101,132.840408 
M210.868469,159.240234 
	C210.554230,158.946014 210.039307,158.350754 209.957550,158.405258 
	C209.314270,158.834167 208.753784,159.387268 208.167801,159.902115 
	C208.293198,160.102768 208.418594,160.303406 208.543991,160.504059 
	C209.325409,160.261444 210.106842,160.018845 210.868469,159.240234 
z"/>
<path fill="#040404" opacity="1.000000" stroke="none" 
	d="
M11.504833,132.429749 
	C3.842442,82.763268 26.468573,39.032436 71.261604,18.874393 
	C104.124931,4.085028 136.675522,6.749409 167.694962,25.043211 
	C173.865692,28.682413 179.645432,33.278442 184.801193,38.264843 
	C190.308517,43.591251 195.437973,49.520428 199.673157,55.890690 
	C203.937317,62.304512 207.531143,69.345299 210.254456,76.551346 
	C212.987305,83.782539 214.945404,91.463486 216.023346,99.119064 
	C217.104568,106.798004 217.398758,114.745056 216.795288,122.477631 
	C213.599091,163.431885 185.459564,199.704453 145.314011,212.217072 
	C114.331970,221.873596 84.857513,218.052429 57.410801,200.728241 
	C51.151394,196.777344 45.423466,191.806900 40.030708,186.694168 
	C24.530060,171.998398 15.732863,153.623383 11.504833,132.429749 
M122.438194,36.526863 
	C122.438194,38.478973 122.438194,40.431084 122.438194,42.383194 
	C122.958977,42.399036 123.479767,42.414879 124.000549,42.430725 
	C124.000549,40.620636 124.000549,38.810547 124.771324,37.001717 
	C126.558289,37.581066 128.345245,38.160412 130.382996,38.821064 
	C134.157227,32.863861 126.274544,34.356682 126.221527,31.015692 
	C125.782143,31.036169 125.342758,31.056646 124.903366,31.077126 
	C124.269409,32.718384 123.635452,34.359638 122.438194,36.526863 
M84.702675,149.721939 
	C84.636017,150.860046 84.569359,151.998138 83.754845,153.106537 
	C82.400894,153.583649 81.046944,154.060760 79.692993,154.537872 
	C80.257408,155.288986 80.821831,156.040115 81.386246,156.791229 
	C82.928535,157.192337 84.470833,157.593445 86.611122,158.355484 
	C89.702377,161.744583 93.487457,163.055161 97.804718,161.381973 
	C98.992424,160.921692 99.657646,159.113220 101.259811,157.006699 
	C98.873138,157.163834 98.062500,157.165527 97.267487,157.277832 
	C91.497528,158.092743 88.798889,155.668991 89.006981,149.959747 
	C89.148872,146.066727 91.065048,143.829224 94.532951,141.968613 
	C99.132141,139.501022 103.602196,136.536652 107.424637,133.021240 
	C108.701340,131.847092 107.817986,128.324203 107.922035,125.874985 
	C105.604324,125.891884 103.007904,125.253456 101.039124,126.090782 
	C98.551453,127.148796 96.575157,129.409195 93.605141,131.069763 
	C91.760101,130.046021 89.915054,129.022293 87.856201,127.281837 
	C85.860878,126.170113 83.900032,124.175758 81.864388,124.096252 
	C71.945801,123.708847 66.205574,133.450958 70.756943,142.496124 
	C71.552643,144.077454 72.408188,145.628647 73.321587,147.355377 
	C69.663094,149.496094 66.102478,151.043137 63.282669,153.455933 
	C61.873970,154.661301 60.920883,157.725677 61.446636,159.429214 
	C61.839729,160.702896 64.898735,161.738907 66.825317,161.840073 
	C71.792397,162.100937 76.773888,157.224289 78.371552,151.827820 
	C78.875923,150.124176 80.729706,148.820023 81.948845,147.891876 
	C82.848244,148.274384 83.747643,148.656876 84.702675,149.721939 
M109.333229,146.094620 
	C109.258743,147.137756 109.184250,148.180878 109.109505,150.027374 
	C108.832367,151.497482 108.665329,152.999084 108.255539,154.431229 
	C107.358772,157.565338 108.107018,159.818542 111.564896,160.287811 
	C114.583817,160.697510 116.552773,159.511032 117.111000,156.144043 
	C117.541649,153.546555 118.540482,151.039551 119.331337,148.506241 
	C121.107155,142.817841 124.594017,138.759064 131.069397,136.481430 
	C131.469177,139.234756 131.824860,141.606842 132.155396,143.982437 
	C132.497421,146.440598 132.552261,148.973877 133.199814,151.346817 
	C134.426544,155.842209 137.380295,156.648575 140.848709,153.537537 
	C142.572845,151.991043 144.277206,150.339401 145.621338,148.469910 
	C148.281494,144.770020 150.900009,144.476151 154.662964,147.178024 
	C157.137131,148.954529 158.270187,150.657990 156.909241,153.295700 
	C155.412903,156.195831 152.938034,156.339020 150.094788,155.102768 
	C148.589859,154.448410 146.897827,154.224289 144.187729,153.519028 
	C146.659485,159.459061 150.143234,160.443115 154.450531,160.076218 
	C158.595764,159.723129 161.313385,157.520432 162.475204,153.687134 
	C164.856705,145.829590 157.106857,145.086838 153.162308,141.276016 
	C155.105240,139.412720 157.300522,137.953217 158.556488,135.914932 
	C159.729248,134.011642 161.046875,130.794174 160.213516,129.433319 
	C159.288651,127.923019 155.883057,127.021492 153.761078,127.316818 
	C145.801224,128.424652 142.880203,135.164062 146.385544,141.593628 
	C144.187943,144.242508 142.169632,146.675293 139.596298,149.777054 
	C138.900558,145.570618 138.659256,142.246002 137.750183,139.115280 
	C136.746750,135.659576 135.130951,132.381683 133.781876,129.026337 
	C130.568298,131.142548 126.646217,132.673950 124.305008,135.510269 
	C120.675140,139.907745 118.123116,145.194901 114.817207,149.828217 
	C114.817207,149.828217 114.512756,149.559875 114.484909,148.782730 
	C116.455032,144.089996 118.503639,139.427826 120.350739,134.687149 
	C120.959091,133.125809 121.408180,131.314484 121.200371,129.712097 
	C121.112663,129.035797 118.619583,127.855576 118.119934,128.202118 
	C116.644012,129.225784 115.147606,130.712906 114.505234,132.350555 
	C112.756760,136.808136 111.443756,141.436508 109.333229,146.094620 
M112.071861,89.243042 
	C111.157425,88.118729 110.242996,86.994415 109.304527,85.039398 
	C111.550308,78.688042 106.647537,76.312363 102.189705,72.603867 
	C100.077904,74.983673 97.102501,76.934975 96.240448,79.576080 
	C93.840965,86.927460 91.964005,94.504417 90.658432,102.125526 
	C90.246826,104.528160 91.538322,108.540947 93.386406,109.716621 
	C96.493294,111.693100 99.413033,109.081078 101.022865,106.133644 
	C103.307129,101.951393 105.237465,97.575821 107.369041,93.179749 
	C109.796486,93.179749 112.312492,93.179749 114.711960,93.179749 
	C113.258286,96.274712 111.325058,99.142845 110.623375,102.285912 
	C110.078247,104.727730 111.069344,107.512512 111.377640,110.144859 
	C113.978645,109.646523 117.456429,110.033714 119.019005,108.486588 
	C124.042114,103.513123 128.393387,97.854691 132.919754,92.390846 
	C133.935959,91.164185 134.610779,89.654716 136.089600,87.203079 
	C136.498077,93.028915 136.629944,97.344727 137.148697,101.613533 
	C137.652893,105.762596 138.553711,109.863457 139.410583,114.724136 
	C141.884644,113.109596 143.337372,112.161560 144.790115,111.213516 
	C144.276840,111.180428 143.763580,111.147339 143.250305,111.114250 
	C142.508514,102.632973 140.973694,94.120491 141.305725,85.681465 
	C141.524490,80.121460 144.590775,74.708473 146.032303,69.139137 
	C146.436462,67.577690 145.601440,65.695496 145.334854,63.960434 
	C143.780960,64.673225 141.993301,65.115776 140.751709,66.189644 
	C139.858337,66.962334 139.522522,68.539185 139.237671,69.823776 
	C138.582565,72.777939 138.110367,75.772659 137.563919,78.750923 
	C135.483383,74.392250 132.620056,74.283020 129.758560,76.259094 
	C126.653458,78.403389 123.995209,81.194771 121.022064,82.857262 
	C120.188431,82.483086 119.354805,82.108910 118.521172,81.734734 
	C118.992409,82.756897 119.463638,83.779060 119.657753,85.535805 
	C117.286926,86.974533 114.916100,88.413269 112.071861,89.243042 
M75.889755,87.154785 
	C74.312576,92.551048 72.402962,97.882210 71.327118,103.376640 
	C70.915344,105.479568 72.136101,108.099571 73.221771,110.163712 
	C73.503883,110.700058 76.668266,110.636742 77.505661,109.820168 
	C84.390633,103.106346 89.924644,95.376915 91.148499,85.599915 
	C91.999336,78.802849 85.602913,74.320396 79.091148,76.378471 
	C75.242134,77.594978 71.306015,78.535904 66.662262,79.804817 
	C69.315346,69.526634 72.412727,60.843529 81.490364,55.720497 
	C77.773193,52.070084 74.819763,52.742462 72.773567,56.129158 
	C69.699318,61.217422 66.243660,66.325584 64.513069,71.909653 
	C62.514069,78.359795 59.878460,82.873520 52.547550,83.065758 
	C51.924614,83.082085 50.872669,83.381393 50.770397,83.754776 
	C50.305676,85.451378 50.109859,87.221626 49.817303,88.965385 
	C51.320312,88.957527 52.943794,89.308929 54.297237,88.855057 
	C56.185253,88.221909 57.871452,86.986938 59.809216,85.918411 
	C58.430801,104.817009 57.100426,123.056931 55.770050,141.296860 
	C56.304092,141.440643 56.838131,141.584442 57.372169,141.728226 
	C58.226696,139.561584 59.620594,137.448624 59.842525,135.219025 
	C60.811230,125.486931 61.280838,115.705193 62.247578,105.972862 
	C62.886280,99.542976 63.986099,93.153511 65.072479,86.778847 
	C65.249435,85.740532 66.254166,84.318573 67.177345,84.026917 
	C70.419502,83.002663 73.793083,82.394424 77.928383,81.441177 
	C77.112106,83.657494 76.616768,85.002426 75.889755,87.154785 
M190.012512,120.171364 
	C182.637589,118.859985 178.898712,124.284409 174.725357,128.640533 
	C171.565948,131.938324 168.769791,135.592072 165.928482,139.179672 
	C165.385635,139.865097 165.164108,140.984161 165.177139,141.897705 
	C165.219223,144.851105 165.311218,147.816010 165.631592,150.749435 
	C165.893204,153.144669 166.014374,155.757187 167.079483,157.817612 
	C168.887024,161.314224 172.267944,161.076630 175.349716,159.684998 
	C178.150803,158.420151 181.637131,157.332886 180.591049,152.493546 
	C178.785995,153.743973 177.454590,155.057785 175.854385,155.676895 
	C173.798050,156.472488 171.538055,156.800537 170.835983,153.631821 
	C169.841095,149.141434 172.798706,141.462219 176.704041,138.718307 
	C180.646530,135.948303 184.753525,133.391602 188.533295,130.417191 
	C191.730743,127.901039 193.985840,124.797745 190.012512,120.171364 
M181.177429,77.500099 
	C183.134033,78.082611 185.090622,78.665123 187.047241,79.247635 
	C187.334839,77.998161 187.622452,76.748680 187.821899,75.882187 
	C185.716858,75.393173 184.365799,74.731133 183.136581,74.909370 
	C182.233261,75.040359 181.489487,76.271645 181.177429,77.500099 
M75.889603,32.558807 
	C75.285446,31.771465 74.681297,30.984123 74.077141,30.196779 
	C73.730743,30.407013 73.384346,30.617245 73.037949,30.827478 
	C73.236870,32.737705 73.435799,34.647930 73.634727,36.558155 
	C73.888870,36.594887 74.143021,36.631618 74.397171,36.668350 
	C74.862244,35.530865 75.327316,34.393379 75.889603,32.558807 
M198.081894,112.456261 
	C198.895996,112.939819 199.710098,113.423378 200.524200,113.906937 
	C200.646591,113.720009 200.768967,113.533073 200.891357,113.346146 
	C200.177872,113.037033 199.464371,112.727921 198.081894,112.456261 
M92.825363,123.243988 
	C92.880714,123.410904 92.936058,123.577820 92.991409,123.744736 
	C93.045395,123.576714 93.099380,123.408691 92.825363,123.243988 
M105.413101,142.481369 
	C105.413101,142.481369 105.520721,142.417465 105.413101,142.481369 
z"/>
<path fill="#E9E9E9" opacity="1.000000" stroke="none" 
	d="
M210.878357,159.508240 
	C210.106842,160.018845 209.325409,160.261444 208.543991,160.504059 
	C208.418594,160.303406 208.293198,160.102768 208.167801,159.902115 
	C208.753784,159.387268 209.314270,158.834167 209.957550,158.405258 
	C210.039307,158.350754 210.554230,158.946014 210.878357,159.508240 
z"/>
<path fill="#EAEAEA" opacity="1.000000" stroke="none" 
	d="
M121.142097,83.703979 
	C123.995209,81.194771 126.653458,78.403389 129.758560,76.259094 
	C132.620056,74.283020 135.483383,74.392250 137.563919,78.750923 
	C138.110367,75.772659 138.582565,72.777939 139.237671,69.823776 
	C139.522522,68.539185 139.858337,66.962334 140.751709,66.189644 
	C141.993301,65.115776 143.780960,64.673225 145.334839,63.960434 
	C145.601440,65.695496 146.436462,67.577690 146.032303,69.139137 
	C144.590775,74.708473 141.524490,80.121460 141.305725,85.681465 
	C140.973694,94.120491 142.508514,102.632973 143.250305,111.114250 
	C143.763580,111.147339 144.276840,111.180428 144.790115,111.213516 
	C143.337372,112.161560 141.884644,113.109596 139.410583,114.724136 
	C138.553711,109.863457 137.652893,105.762596 137.148697,101.613533 
	C136.629944,97.344727 136.498077,93.028915 136.089600,87.203079 
	C134.610779,89.654716 133.935959,91.164185 132.919754,92.390846 
	C128.393387,97.854691 124.042114,103.513123 119.019005,108.486588 
	C117.456429,110.033714 113.978645,109.646523 111.377640,110.144859 
	C111.069344,107.512512 110.078247,104.727730 110.623375,102.285912 
	C111.325058,99.142845 113.258286,96.274712 114.711960,93.179749 
	C112.312492,93.179749 109.796486,93.179749 107.369041,93.179749 
	C105.237465,97.575821 103.307129,101.951393 101.022865,106.133644 
	C99.413033,109.081078 96.493294,111.693100 93.386406,109.716621 
	C91.538322,108.540947 90.246826,104.528160 90.658432,102.125526 
	C91.964005,94.504417 93.840965,86.927460 96.240448,79.576080 
	C97.102501,76.934975 100.077904,74.983673 102.189705,72.603867 
	C106.647537,76.312363 111.550308,78.688042 109.152618,85.763336 
	C108.631538,89.242432 109.712715,90.469711 112.545273,89.852005 
	C114.916100,88.413269 117.286926,86.974533 119.922089,85.124130 
	C120.504990,84.376297 120.823540,84.040138 121.142097,83.703979 
M132.303787,85.734016 
	C132.974930,85.001358 133.646072,84.268692 134.274918,83.582199 
	C132.322205,80.441628 129.680191,80.476814 127.814171,83.032478 
	C123.376656,89.110008 119.326660,95.474930 115.264793,101.816422 
	C114.782158,102.569923 115.199173,103.899681 115.199173,105.783081 
	C123.576019,100.982292 127.067802,93.073540 132.303787,85.734016 
M102.019432,95.404892 
	C104.840836,90.661392 100.323921,89.140938 97.162674,86.458290 
	C96.268913,92.707054 95.375153,98.955826 94.481392,105.204590 
	C95.238503,105.439728 95.995621,105.674866 96.752731,105.910011 
	C98.420326,102.651863 100.087914,99.393715 102.019432,95.404892 
z"/>
<path fill="#EBEBEB" opacity="1.000000" stroke="none" 
	d="
M76.005585,86.751076 
	C76.616768,85.002426 77.112106,83.657494 77.928383,81.441177 
	C73.793083,82.394424 70.419502,83.002663 67.177345,84.026917 
	C66.254166,84.318573 65.249435,85.740532 65.072479,86.778847 
	C63.986099,93.153511 62.886280,99.542976 62.247578,105.972862 
	C61.280838,115.705193 60.811230,125.486931 59.842525,135.219025 
	C59.620594,137.448624 58.226696,139.561584 57.372169,141.728226 
	C56.838131,141.584442 56.304092,141.440643 55.770050,141.296860 
	C57.100426,123.056931 58.430801,104.817009 59.809216,85.918411 
	C57.871452,86.986938 56.185253,88.221909 54.297237,88.855057 
	C52.943794,89.308929 51.320312,88.957527 49.817299,88.965385 
	C50.109859,87.221626 50.305676,85.451378 50.770397,83.754776 
	C50.872669,83.381393 51.924614,83.082085 52.547550,83.065758 
	C59.878460,82.873520 62.514069,78.359795 64.513069,71.909653 
	C66.243660,66.325584 69.699318,61.217422 72.773567,56.129158 
	C74.819763,52.742462 77.773193,52.070084 81.490364,55.720497 
	C72.412727,60.843529 69.315346,69.526634 66.662262,79.804817 
	C71.306015,78.535904 75.242134,77.594978 79.091148,76.378471 
	C85.602913,74.320396 91.999336,78.802849 91.148499,85.599915 
	C89.924644,95.376915 84.390633,103.106346 77.505661,109.820168 
	C76.668266,110.636742 73.503883,110.700058 73.221771,110.163712 
	C72.136101,108.099571 70.915344,105.479568 71.327118,103.376640 
	C72.402962,97.882210 74.312576,92.551048 76.005585,86.751076 
M76.704803,97.219223 
	C76.198189,99.781975 75.691574,102.344734 75.184959,104.907486 
	C81.316437,100.757713 83.862762,94.780403 85.891975,88.596016 
	C86.305939,87.334396 85.278389,85.599777 84.915344,84.083214 
	C83.469727,84.804802 81.304146,85.160744 80.716400,86.318024 
	C79.094246,89.512062 78.131737,93.041092 76.704803,97.219223 
z"/>
<path fill="#EAEAEA" opacity="1.000000" stroke="none" 
	d="
M115.114120,150.104874 
	C118.123116,145.194901 120.675140,139.907745 124.305008,135.510269 
	C126.646217,132.673950 130.568298,131.142548 133.781876,129.026337 
	C135.130951,132.381683 136.746750,135.659576 137.750183,139.115280 
	C138.659256,142.246002 138.900558,145.570618 139.596298,149.777054 
	C142.169632,146.675293 144.187943,144.242508 146.385544,141.593628 
	C142.880203,135.164062 145.801224,128.424652 153.761078,127.316818 
	C155.883057,127.021492 159.288651,127.923019 160.213516,129.433319 
	C161.046875,130.794174 159.729248,134.011642 158.556488,135.914932 
	C157.300522,137.953217 155.105240,139.412720 153.162308,141.276016 
	C157.106857,145.086838 164.856705,145.829590 162.475204,153.687134 
	C161.313385,157.520432 158.595764,159.723129 154.450531,160.076218 
	C150.143234,160.443115 146.659485,159.459061 144.187729,153.519028 
	C146.897827,154.224289 148.589859,154.448410 150.094788,155.102768 
	C152.938034,156.339020 155.412903,156.195831 156.909241,153.295700 
	C158.270187,150.657990 157.137131,148.954529 154.662964,147.178024 
	C150.900009,144.476151 148.281494,144.770020 145.621338,148.469910 
	C144.277206,150.339401 142.572845,151.991043 140.848709,153.537537 
	C137.380295,156.648575 134.426544,155.842209 133.199814,151.346817 
	C132.552261,148.973877 132.497421,146.440598 132.155396,143.982437 
	C131.824860,141.606842 131.469177,139.234756 131.069397,136.481430 
	C124.594017,138.759064 121.107155,142.817841 119.331337,148.506241 
	C118.540482,151.039551 117.541649,153.546555 117.111000,156.144043 
	C116.552773,159.511032 114.583817,160.697510 111.564896,160.287811 
	C108.107018,159.818542 107.358772,157.565338 108.255539,154.431229 
	C108.665329,152.999084 108.832367,151.497482 109.372665,149.391159 
	C109.743271,147.835693 109.850723,146.916458 109.958176,145.997208 
	C111.443756,141.436508 112.756760,136.808136 114.505234,132.350555 
	C115.147606,130.712906 116.644012,129.225784 118.119934,128.202118 
	C118.619583,127.855576 121.112663,129.035797 121.200371,129.712097 
	C121.408180,131.314484 120.959091,133.125809 120.350739,134.687149 
	C118.503639,139.427826 116.455032,144.089996 114.333160,149.432068 
	C114.181419,150.638855 114.181419,151.196289 114.181419,151.753738 
	C114.347389,151.770325 114.513351,151.786896 114.679321,151.803467 
	C114.824257,151.237274 114.969193,150.671082 115.114120,150.104874 
z"/>
<path fill="#EBEBEB" opacity="1.000000" stroke="none" 
	d="
M94.378281,131.150940 
	C96.575157,129.409195 98.551453,127.148796 101.039124,126.090782 
	C103.007904,125.253456 105.604324,125.891884 107.922043,125.874985 
	C107.817986,128.324203 108.701340,131.847092 107.424637,133.021240 
	C103.602196,136.536652 99.132141,139.501022 94.532951,141.968613 
	C91.065048,143.829224 89.148872,146.066727 89.006981,149.959747 
	C88.798889,155.668991 91.497528,158.092743 97.267487,157.277832 
	C98.062500,157.165527 98.873138,157.163834 101.259811,157.006699 
	C99.657646,159.113220 98.992424,160.921692 97.804718,161.381973 
	C93.487457,163.055161 89.702377,161.744583 86.296112,157.848328 
	C85.488297,155.939529 84.995499,154.537888 84.502701,153.136246 
	C84.569359,151.998138 84.636017,150.860046 84.818153,149.131622 
	C84.912140,148.350967 84.890656,148.160629 84.998337,147.652679 
	C84.661415,147.028244 84.195320,146.721405 83.385712,146.459595 
	C82.683434,146.780746 82.324669,147.056900 81.965904,147.333038 
	C80.729706,148.820023 78.875923,150.124176 78.371552,151.827820 
	C76.773888,157.224289 71.792397,162.100937 66.825317,161.840073 
	C64.898735,161.738907 61.839729,160.702896 61.446636,159.429214 
	C60.920883,157.725677 61.873970,154.661301 63.282669,153.455933 
	C66.102478,151.043137 69.663094,149.496094 73.321587,147.355377 
	C72.408188,145.628647 71.552643,144.077454 70.756943,142.496124 
	C66.205574,133.450958 71.945801,123.708847 81.864388,124.096252 
	C83.900032,124.175758 85.860878,126.170113 87.713043,127.991760 
	C85.620789,128.733246 83.669258,128.842575 81.723053,128.781708 
	C76.054787,128.604462 72.825180,131.912643 73.875252,137.500320 
	C74.430260,140.453613 75.964058,143.222977 77.055107,146.073166 
	C85.778557,142.445480 85.778557,142.445480 94.378281,131.150940 
M96.480019,135.735901 
	C99.348000,134.116043 102.215981,132.496201 105.083961,130.876343 
	C100.456352,129.573242 97.874100,131.594025 96.480019,135.735901 
M67.359329,154.652481 
	C67.028328,155.595108 66.697334,156.537735 66.366333,157.480377 
	C66.812836,157.837173 67.259338,158.193954 67.705841,158.550751 
	C69.741295,156.633652 71.776741,154.716553 73.812195,152.799438 
	C73.431984,152.314056 73.051765,151.828674 72.671555,151.343292 
	C71.077423,152.268738 69.483284,153.194199 67.359329,154.652481 
z"/>
<path fill="#EBEBEB" opacity="1.000000" stroke="none" 
	d="
M190.342834,120.422073 
	C193.985840,124.797745 191.730743,127.901039 188.533295,130.417191 
	C184.753525,133.391602 180.646530,135.948303 176.704041,138.718307 
	C172.798706,141.462219 169.841095,149.141434 170.835983,153.631821 
	C171.538055,156.800537 173.798050,156.472488 175.854385,155.676895 
	C177.454590,155.057785 178.785995,153.743973 180.591049,152.493546 
	C181.637131,157.332886 178.150803,158.420151 175.349716,159.684998 
	C172.267944,161.076630 168.887024,161.314224 167.079483,157.817612 
	C166.014374,155.757187 165.893204,153.144669 165.631592,150.749435 
	C165.311218,147.816010 165.219223,144.851105 165.177139,141.897705 
	C165.164108,140.984161 165.385635,139.865097 165.928482,139.179672 
	C168.769791,135.592072 171.565948,131.938324 174.725357,128.640533 
	C178.898712,124.284409 182.637589,118.859985 190.342834,120.422073 
M179.796219,131.993546 
	C182.653168,130.674286 185.328049,129.191040 186.032196,125.932747 
	C185.660004,125.561829 185.287811,125.190910 184.915619,124.819992 
	C182.669128,127.014259 180.422653,129.208527 177.736572,131.769836 
	C177.682281,132.139938 177.627991,132.510040 177.573700,132.880157 
	C178.080368,132.620758 178.587036,132.361374 179.796219,131.993546 
z"/>
<path fill="#0C0C0C" opacity="1.000000" stroke="none" 
	d="
M93.991714,131.110352 
	C85.778557,142.445480 85.778557,142.445480 77.055107,146.073166 
	C75.964058,143.222977 74.430260,140.453613 73.875252,137.500320 
	C72.825180,131.912643 76.054787,128.604462 81.723053,128.781708 
	C83.669258,128.842575 85.620789,128.733246 87.819946,128.350128 
	C89.915054,129.022293 91.760101,130.046021 93.991714,131.110352 
z"/>
<path fill="#0D0D0D" opacity="1.000000" stroke="none" 
	d="
M123.001495,36.000896 
	C123.635452,34.359638 124.269409,32.718384 124.903366,31.077126 
	C125.342758,31.056646 125.782143,31.036169 126.221527,31.015692 
	C126.274544,34.356682 134.157227,32.863861 130.382996,38.821064 
	C128.345245,38.160412 126.558289,37.581066 124.385666,37.000858 
	C124.000000,37.000000 123.999390,36.999393 123.892517,36.778934 
	C123.584358,36.285477 123.321762,36.098602 122.998932,35.998924 
	C123.000000,36.000000 123.001495,36.000896 123.001495,36.000896 
z"/>
<path fill="#090909" opacity="1.000000" stroke="none" 
	d="
M180.926025,77.256348 
	C181.489487,76.271645 182.233261,75.040359 183.136581,74.909370 
	C184.365799,74.731133 185.716858,75.393173 187.821899,75.882187 
	C187.622452,76.748680 187.334839,77.998161 187.047241,79.247635 
	C185.090622,78.665123 183.134033,78.082611 180.926025,77.256348 
z"/>
<path fill="#1C1C1C" opacity="1.000000" stroke="none" 
	d="
M84.128769,153.121399 
	C84.995499,154.537888 85.488297,155.939529 85.997108,157.667847 
	C84.470833,157.593445 82.928535,157.192337 81.386246,156.791229 
	C80.821831,156.040115 80.257408,155.288986 79.692993,154.537872 
	C81.046944,154.060760 82.400894,153.583649 84.128769,153.121399 
z"/>
<path fill="#090909" opacity="1.000000" stroke="none" 
	d="
M75.841003,32.907349 
	C75.327316,34.393379 74.862244,35.530865 74.397171,36.668350 
	C74.143021,36.631618 73.888870,36.594887 73.634727,36.558155 
	C73.435799,34.647930 73.236870,32.737705 73.037949,30.827478 
	C73.384346,30.617245 73.730743,30.407013 74.077141,30.196779 
	C74.681297,30.984123 75.285446,31.771465 75.841003,32.907349 
z"/>
<path fill="#0D0D0D" opacity="1.000000" stroke="none" 
	d="
M124.000275,37.000229 
	C124.000549,38.810547 124.000549,40.620636 124.000549,42.430725 
	C123.479767,42.414879 122.958977,42.399036 122.438194,42.383194 
	C122.438194,40.431084 122.438194,38.478973 122.719849,36.263878 
	C123.001495,36.000896 123.000000,36.000000 123.107010,36.218746 
	C123.413094,36.712433 123.674889,36.899731 123.999390,36.999393 
	C123.999390,36.999393 124.000000,37.000000 124.000275,37.000229 
z"/>
<path fill="#0F0F0F" opacity="1.000000" stroke="none" 
	d="
M112.308563,89.547523 
	C109.712715,90.469711 108.631538,89.242432 109.164635,86.178696 
	C110.242996,86.994415 111.157425,88.118729 112.308563,89.547523 
z"/>
<path fill="#0F0F0F" opacity="1.000000" stroke="none" 
	d="
M121.082077,83.280624 
	C120.823540,84.040138 120.504990,84.376297 120.060654,84.756836 
	C119.463638,83.779060 118.992409,82.756897 118.521172,81.734734 
	C119.354805,82.108910 120.188431,82.483086 121.082077,83.280624 
z"/>
<path fill="#A1A1A1" opacity="1.000000" stroke="none" 
	d="
M198.416382,112.437531 
	C199.464371,112.727921 200.177872,113.037033 200.891357,113.346146 
	C200.768967,113.533073 200.646591,113.720009 200.524200,113.906937 
	C199.710098,113.423378 198.895996,112.939819 198.416382,112.437531 
z"/>
<path fill="#1C1C1C" opacity="1.000000" stroke="none" 
	d="
M81.957375,147.612457 
	C82.324669,147.056900 82.683434,146.780746 83.515152,146.762665 
	C84.281792,147.337250 84.575478,147.653778 84.869164,147.970306 
	C84.890656,148.160629 84.912140,148.350967 84.790337,148.790344 
	C83.747643,148.656876 82.848244,148.274384 81.957375,147.612457 
z"/>
<path fill="#101010" opacity="1.000000" stroke="none" 
	d="
M109.645706,146.045914 
	C109.850723,146.916458 109.743271,147.835693 109.372787,148.989471 
	C109.184250,148.180878 109.258743,147.137756 109.645706,146.045914 
z"/>
<path fill="#0B0B0B" opacity="1.000000" stroke="none" 
	d="
M92.989365,123.242325 
	C93.099380,123.408691 93.045395,123.576714 92.991409,123.744736 
	C92.936058,123.577820 92.880714,123.410904 92.989365,123.242325 
z"/>
<path fill="#101010" opacity="1.000000" stroke="none" 
	d="
M105.466911,142.449417 
	C105.520721,142.417465 105.413101,142.481369 105.466911,142.449417 
z"/>
<path fill="#141414" opacity="1.000000" stroke="none" 
	d="
M132.123230,86.057388 
	C127.067802,93.073540 123.576019,100.982292 115.199173,105.783081 
	C115.199173,103.899681 114.782158,102.569923 115.264793,101.816422 
	C119.326660,95.474930 123.376656,89.110008 127.814171,83.032478 
	C129.680191,80.476814 132.322205,80.441628 134.274918,83.582199 
	C133.646072,84.268692 132.974930,85.001358 132.123230,86.057388 
z"/>
<path fill="#151515" opacity="1.000000" stroke="none" 
	d="
M101.887466,95.770233 
	C100.087914,99.393715 98.420326,102.651863 96.752731,105.910011 
	C95.995621,105.674866 95.238503,105.439728 94.481392,105.204590 
	C95.375153,98.955826 96.268913,92.707054 97.162674,86.458290 
	C100.323921,89.140938 104.840836,90.661392 101.887466,95.770233 
z"/>
<path fill="#141414" opacity="1.000000" stroke="none" 
	d="
M76.806580,96.828438 
	C78.131737,93.041092 79.094246,89.512062 80.716400,86.318024 
	C81.304146,85.160744 83.469727,84.804802 84.915344,84.083206 
	C85.278389,85.599777 86.305939,87.334396 85.891975,88.596016 
	C83.862762,94.780403 81.316437,100.757713 75.184959,104.907486 
	C75.691574,102.344734 76.198189,99.781975 76.806580,96.828438 
z"/>
<path fill="#040404" opacity="1.000000" stroke="none" 
	d="
M114.965668,149.966553 
	C114.969193,150.671082 114.824257,151.237274 114.679321,151.803467 
	C114.513351,151.786896 114.347389,151.770325 114.181419,151.753738 
	C114.181419,151.196289 114.181419,150.638855 114.347092,149.820648 
	C114.512756,149.559875 114.817207,149.828217 114.965668,149.966553 
z"/>
<path fill="#EAEAEA" opacity="1.000000" stroke="none" 
	d="
M96.365601,135.436188 
	C97.874100,131.594025 100.456352,129.573242 105.083961,130.876343 
	C102.215981,132.496201 99.348000,134.116043 96.365601,135.436188 
z"/>
<path fill="#303030" opacity="1.000000" stroke="none" 
	d="
M67.624237,154.386063 
	C69.483284,153.194199 71.077423,152.268738 72.671555,151.343292 
	C73.051765,151.828674 73.431984,152.314056 73.812195,152.799438 
	C71.776741,154.716553 69.741295,156.633652 67.705841,158.550751 
	C67.259338,158.193954 66.812836,157.837173 66.366333,157.480377 
	C66.697334,156.537735 67.028328,155.595108 67.624237,154.386063 
z"/>
<path fill="#040404" opacity="1.000000" stroke="none" 
	d="
M84.998337,147.652679 
	C84.575478,147.653778 84.281792,147.337250 83.858665,146.717651 
	C84.195320,146.721405 84.661415,147.028244 84.998337,147.652679 
z"/>
<path fill="#282828" opacity="1.000000" stroke="none" 
	d="
M178.176163,131.402786 
	C180.422653,129.208527 182.669128,127.014259 184.915619,124.819992 
	C185.287811,125.190910 185.660004,125.561829 186.032196,125.932747 
	C185.328049,129.191040 182.653168,130.674286 179.225433,131.860016 
	C178.495148,131.618591 178.335663,131.510681 178.176163,131.402786 
z"/>
<path fill="#282828" opacity="1.000000" stroke="none" 
	d="
M178.874176,131.914246 
	C178.587036,132.361374 178.080368,132.620758 177.573700,132.880157 
	C177.627991,132.510040 177.682281,132.139938 177.956360,131.586304 
	C178.335663,131.510681 178.495148,131.618591 178.874176,131.914246 
z"/>
<path fill="#040404" opacity="1.000000" stroke="none" 
	d="
M123.892517,36.778934 
	C123.674889,36.899731 123.413094,36.712433 123.105942,36.217670 
	C123.321762,36.098602 123.584358,36.285477 123.892517,36.778934 
z"/>
</svg>