<svg width="11" height="8" viewBox="0 0 11 8" fill="none" xmlns="http://www.w3.org/2000/svg">
<path id="icon" d="M4.85124 6.95373L0.715046 2.19059C0.226914 1.63017 0.623629 0.75 1.36445 0.75H9.63683C9.80263 0.749857 9.96495 0.797864 10.1044 0.888273C10.2438 0.978681 10.3544 1.10766 10.4229 1.25976C10.4914 1.41186 10.515 1.58064 10.4907 1.74588C10.4665 1.91112 10.3955 2.06582 10.2862 2.19146L6.15005 6.95286C6.0691 7.04619 5.96927 7.12099 5.85726 7.17224C5.74526 7.22348 5.62366 7.25 5.50064 7.25C5.37763 7.25 5.25603 7.22348 5.14402 7.17224C5.03202 7.12099 4.93219 7.04619 4.85124 6.95286V6.95373Z" fill="#2B2A29"/>
</svg>
