<svg width="16" height="16" viewBox="0 0 16 16" fill="none" xmlns="http://www.w3.org/2000/svg">
<path fill-rule="evenodd" clip-rule="evenodd" d="M6.49512 12.9902C2.90796 12.9902 0 10.0823 0 6.49512C0 2.90796 2.90796 0 6.49512 0C10.0823 0 12.9902 2.90796 12.9902 6.49512C12.9902 7.99608 12.4811 9.37813 11.6261 10.478L16 14.8518L14.8518 16L10.4779 11.6262C9.37808 12.4811 7.99606 12.9902 6.49512 12.9902ZM11.3665 6.49512C11.3665 9.18548 9.18548 11.3665 6.49512 11.3665C3.80475 11.3665 1.62378 9.18548 1.62378 6.49512C1.62378 3.80475 3.80475 1.62378 6.49512 1.62378C9.18548 1.62378 11.3665 3.80475 11.3665 6.49512Z" fill="#667499"/>
</svg>
