<svg width="10" height="26" viewBox="0 0 10 26" fill="none" xmlns="http://www.w3.org/2000/svg">
<path id="Icon" fill-rule="evenodd" clip-rule="evenodd" d="M5.56979 0.892871C5.22633 0.569584 4.67087 0.594452 4.36002 0.967475L0.19468 5.96588L0.138166 6.04151C-0.221748 6.58167 0.160459 7.33227 0.83466 7.33227H9.16534L9.25962 7.32727C9.90499 7.25796 10.2369 6.48382 9.80532 5.96588L5.63998 0.967475L5.56979 0.892871ZM9.86183 19.9585C10.2217 19.4183 9.83954 18.6677 9.16534 18.6677H0.83466L0.740381 18.6727C0.0950087 18.742 -0.236934 19.5162 0.19468 20.0341L4.36002 25.0325L4.43021 25.1071C4.77367 25.4304 5.32913 25.4055 5.63998 25.0325L9.80532 20.0341L9.86183 19.9585Z" fill="#2B2A29"/>
</svg>
